<svg xmlns="http://www.w3.org/2000/svg" xmlns:xlink="http://www.w3.org/1999/xlink" width="500" zoomAndPan="magnify" viewBox="0 0 375 374.999991" height="500" preserveAspectRatio="xMidYMid meet" version="1.0"><defs><clipPath id="7320825c26"><path d="M 8.417969 13 L 312 13 L 312 365.234375 L 8.417969 365.234375 Z M 8.417969 13 " clip-rule="nonzero"/></clipPath><clipPath id="1f9c31e3a8"><path d="M 62 8.234375 L 365.417969 8.234375 L 365.417969 364 L 62 364 Z M 62 8.234375 " clip-rule="nonzero"/></clipPath></defs><rect x="-37.5" width="450" fill="#ffffff" y="-37.499999" height="449.999989" fill-opacity="1"/><rect x="-37.5" width="450" fill="#ffffff" y="-37.499999" height="449.999989" fill-opacity="1"/><g clip-path="url(#7320825c26)"><path fill="#000000" d="M 251.863281 212.183594 L 301.683594 135.96875 L 301.683594 251.59375 L 311.535156 251.59375 L 311.535156 121.472656 L 299.265625 121.472656 L 250.003906 197.316406 L 200.1875 121.472656 C 195.351562 121.472656 193.125 121.472656 188.292969 121.472656 L 188.292969 355.691406 C 187.800781 355.699219 187.308594 355.722656 186.808594 355.722656 C 93.566406 355.722656 17.710938 279.863281 17.710938 186.625 C 17.710938 108.050781 71.585938 41.824219 144.335938 22.9375 L 144.335938 13.386719 C 66.414062 32.496094 8.417969 102.898438 8.417969 186.625 C 8.417969 284.992188 88.449219 365.023438 186.808594 365.023438 C 190.679688 365.023438 194.507812 364.855469 198.320312 364.609375 L 198.320312 357.023438 L 198.328125 357.023438 L 198.328125 135.96875 L 248.523438 212.183594 Z M 251.863281 212.183594 " fill-opacity="1" fill-rule="nonzero"/></g><g clip-path="url(#1f9c31e3a8)"><path fill="#ff1616" d="M 186.808594 8.234375 C 175.464844 8.234375 164.386719 9.34375 153.628906 11.378906 L 153.628906 130.929688 C 142.601562 121.378906 129.738281 119.628906 115.425781 119.628906 C 94.046875 119.628906 65.4375 128.164062 65.980469 155.679688 C 65.980469 179.652344 90.335938 184.5 114.140625 189.136719 C 135.496094 193.230469 157.066406 197.507812 156.875 217.011719 C 156.875 240.082031 131.40625 244.527344 115.425781 244.527344 C 99.445312 244.527344 78.992188 236.722656 71 220.933594 L 62.078125 225.386719 C 72.113281 245.289062 95.164062 253.644531 115.425781 253.644531 C 137.1875 253.644531 166.742188 246.582031 166.914062 217.210938 C 166.914062 189.144531 140.898438 184.679688 115.800781 179.851562 C 93.847656 175.757812 76.015625 171.859375 76.015625 155.304688 C 76.015625 134.492188 100.179688 128.90625 115.425781 128.90625 C 129.507812 129.097656 144.121094 131.140625 153.628906 144.761719 C 154.03125 145.328125 154.429688 145.945312 154.832031 146.578125 L 162.910156 141.808594 L 163.011719 141.742188 C 162.96875 141.699219 162.945312 141.640625 162.910156 141.597656 L 162.910156 19.253906 C 170.71875 18.140625 178.695312 17.527344 186.808594 17.527344 C 280.046875 17.527344 355.902344 93.386719 355.902344 186.625 C 355.902344 272.820312 291.066406 344.105469 207.613281 354.398438 L 207.613281 363.765625 C 296.210938 353.421875 365.199219 277.953125 365.199219 186.625 C 365.207031 88.265625 285.175781 8.234375 186.808594 8.234375 Z M 186.808594 8.234375 " fill-opacity="1" fill-rule="nonzero"/></g></svg>