<svg width="34" height="34" viewBox="0 0 34 34" fill="none" xmlns="http://www.w3.org/2000/svg"><circle cx="17" cy="17" r="17" fill="#00A973"></circle><path d="M17 26C14.5 26 12.375 25.125 10.625 23.375C8.875 21.625 8 19.5 8 17C8 14.5 8.875 12.375 10.625 10.625C12.375 8.875 14.5 8 17 8C17.1333 8 17.275 8.00417 17.425 8.0125C17.575 8.02083 17.7667 8.03333 18 8.05C17.4 8.58333 16.9333 9.24167 16.6 10.025C16.2667 10.8083 16.1 11.6333 16.1 12.5C16.1 14 16.625 15.275 17.675 16.325C18.725 17.375 20 17.9 21.5 17.9C22.3667 17.9 23.1917 17.7458 23.975 17.4375C24.7583 17.1292 25.4167 16.7 25.95 16.15C25.9667 16.35 25.9792 16.5125 25.9875 16.6375C25.9958 16.7625 26 16.8833 26 17C26 19.5 25.125 21.625 23.375 23.375C21.625 25.125 19.5 26 17 26ZM17 24.5C18.8167 24.5 20.4 23.9375 21.75 22.8125C23.1 21.6875 23.9417 20.3667 24.275 18.85C23.8583 19.0333 23.4125 19.1708 22.9375 19.2625C22.4625 19.3542 21.9833 19.4 21.5 19.4C19.5833 19.4 17.9542 18.7292 16.6125 17.3875C15.2708 16.0458 14.6 14.4167 14.6 12.5C14.6 12.1 14.6417 11.6708 14.725 11.2125C14.8083 10.7542 14.9583 10.2333 15.175 9.65C13.5417 10.1 12.1875 11.0125 11.1125 12.3875C10.0375 13.7625 9.5 15.3 9.5 17C9.5 19.0833 10.2292 20.8542 11.6875 22.3125C13.1458 23.7708 14.9167 24.5 17 24.5Z" fill="white"></path></svg>