<svg width="34" height="34" viewBox="0 0 34 34" fill="none" xmlns="http://www.w3.org/2000/svg"><circle cx="17" cy="17" r="17" fill="#00A973"></circle><path d="M17 20.5C17.9667 20.5 18.7917 20.1583 19.475 19.475C20.1583 18.7917 20.5 17.9667 20.5 17C20.5 16.0333 20.1583 15.2083 19.475 14.525C18.7917 13.8417 17.9667 13.5 17 13.5C16.0333 13.5 15.2083 13.8417 14.525 14.525C13.8417 15.2083 13.5 16.0333 13.5 17C13.5 17.9667 13.8417 18.7917 14.525 19.475C15.2083 20.1583 16.0333 20.5 17 20.5ZM17 22C15.6167 22 14.4375 21.5125 13.4625 20.5375C12.4875 19.5625 12 18.3833 12 17C12 15.6167 12.4875 14.4375 13.4625 13.4625C14.4375 12.4875 15.6167 12 17 12C18.3833 12 19.5625 12.4875 20.5375 13.4625C21.5125 14.4375 22 15.6167 22 17C22 18.3833 21.5125 19.5625 20.5375 20.5375C19.5625 21.5125 18.3833 22 17 22ZM6.75 17.75C6.53333 17.75 6.35417 17.6792 6.2125 17.5375C6.07083 17.3958 6 17.2167 6 17C6 16.7833 6.07083 16.6042 6.2125 16.4625C6.35417 16.3208 6.53333 16.25 6.75 16.25H9.25C9.46667 16.25 9.64583 16.3208 9.7875 16.4625C9.92917 16.6042 10 16.7833 10 17C10 17.2167 9.92917 17.3958 9.7875 17.5375C9.64583 17.6792 9.46667 17.75 9.25 17.75H6.75ZM24.75 17.75C24.5333 17.75 24.3542 17.6792 24.2125 17.5375C24.0708 17.3958 24 17.2167 24 17C24 16.7833 24.0708 16.6042 24.2125 16.4625C24.3542 16.3208 24.5333 16.25 24.75 16.25H27.25C27.4667 16.25 27.6458 16.3208 27.7875 16.4625C27.9292 16.6042 28 16.7833 28 17C28 17.2167 27.9292 17.3958 27.7875 17.5375C27.6458 17.6792 27.4667 17.75 27.25 17.75H24.75ZM17 10C16.7833 10 16.6042 9.92917 16.4625 9.7875C16.3208 9.64583 16.25 9.46667 16.25 9.25V6.75C16.25 6.53333 16.3208 6.35417 16.4625 6.2125C16.6042 6.07083 16.7833 6 17 6C17.2167 6 17.3958 6.07083 17.5375 6.2125C17.6792 6.35417 17.75 6.53333 17.75 6.75V9.25C17.75 9.46667 17.6792 9.64583 17.5375 9.7875C17.3958 9.92917 17.2167 10 17 10ZM17 28C16.7833 28 16.6042 27.9292 16.4625 27.7875C16.3208 27.6458 16.25 27.4667 16.25 27.25V24.75C16.25 24.5333 16.3208 24.3542 16.4625 24.2125C16.6042 24.0708 16.7833 24 17 24C17.2167 24 17.3958 24.0708 17.5375 24.2125C17.6792 24.3542 17.75 24.5333 17.75 24.75V27.25C17.75 27.4667 17.6792 27.6458 17.5375 27.7875C17.3958 27.9292 17.2167 28 17 28ZM11 12.05L9.575 10.65C9.425 10.5 9.35417 10.3208 9.3625 10.1125C9.37083 9.90417 9.44167 9.725 9.575 9.575C9.725 9.425 9.90417 9.35 10.1125 9.35C10.3208 9.35 10.5 9.425 10.65 9.575L12.05 11C12.1833 11.15 12.25 11.325 12.25 11.525C12.25 11.725 12.1833 11.8917 12.05 12.025C11.9167 12.175 11.7458 12.25 11.5375 12.25C11.3292 12.25 11.15 12.1833 11 12.05ZM23.35 24.425L21.95 23C21.8167 22.85 21.75 22.6708 21.75 22.4625C21.75 22.2542 21.825 22.0833 21.975 21.95C22.1083 21.8 22.275 21.725 22.475 21.725C22.675 21.725 22.85 21.8 23 21.95L24.425 23.35C24.575 23.5 24.6458 23.6792 24.6375 23.8875C24.6292 24.0958 24.5583 24.275 24.425 24.425C24.275 24.575 24.0958 24.65 23.8875 24.65C23.6792 24.65 23.5 24.575 23.35 24.425ZM21.95 12.05C21.8 11.9 21.725 11.725 21.725 11.525C21.725 11.325 21.8 11.15 21.95 11L23.35 9.575C23.5 9.425 23.6792 9.35417 23.8875 9.3625C24.0958 9.37083 24.275 9.44167 24.425 9.575C24.575 9.725 24.65 9.90417 24.65 10.1125C24.65 10.3208 24.575 10.5 24.425 10.65L23 12.05C22.8667 12.1833 22.6958 12.25 22.4875 12.25C22.2792 12.25 22.1 12.1833 21.95 12.05ZM9.575 24.425C9.425 24.275 9.35 24.0958 9.35 23.8875C9.35 23.6792 9.425 23.5 9.575 23.35L11 21.95C11.15 21.8 11.325 21.725 11.525 21.725C11.725 21.725 11.9 21.8 12.05 21.95C12.2 22.1 12.275 22.275 12.275 22.475C12.275 22.675 12.2 22.85 12.05 23L10.65 24.425C10.5 24.575 10.3208 24.6458 10.1125 24.6375C9.90417 24.6292 9.725 24.5583 9.575 24.425Z" fill="white"></path></svg>